{
  "asset": {
    "version": "2.0",
    "generator": "THREE.GLTFExporter"
  },
  "scenes": [
    {
      "nodes": [
        0
      ]
    }
  ],
  "scene": 0,
  "nodes": [
    {
      "children": [
        16
      ],
      "matrix": [
        0.01,
        0,
        0,
        0,
        0,
        0.01,
        0,
        0,
        0,
        0,
        0.01,
        0,
        0,
        0,
        0,
        1
      ]
    },
    {
      "matrix": [
        0.8386942037269123,
        0,
        3.5406765980380644e-17,
        0,
        0,
        0.5649468744304472,
        0,
        0,
        -2.4361157154765674e-16,
        0,
        0.8386942037269413,
        0,
        -106.56015793716357,
        29.846286802086972,
        -5.6519938773571665,
        1.0000000000000004
      ],
      "name": "gress",
      "mesh": 0
    },
    {
      "matrix": [
        0.8386942037269123,
        0,
        3.5406765980380644e-17,
        0,
        0,
        0.5649468744304472,
        0,
        0,
        -2.4361157154765674e-16,
        0,
        0.8386942037269413,
        0,
        -106.56015793716357,
        29.846286802086972,
        -5.6519938773571665,
        1.0000000000000004
      ],
      "name": "sand",
      "mesh": 1
    },
    {
      "matrix": [
        0.8386942037269123,
        0,
        3.5406765980380644e-17,
        0,
        0,
        0.5649468744304472,
        0,
        0,
        -2.4361157154765674e-16,
        0,
        0.8386942037269413,
        0,
        -106.56015793716357,
        29.846286802086972,
        -5.6519938773571665,
        1.0000000000000004
      ],
      "name": "rock",
      "mesh": 2
    },
    {
      "matrix": [
        0.8106331861658789,
        0,
        -0.5855542993493905,
        0,
        0,
        1,
        0,
        0,
        0.5855542993493905,
        0,
        0.8106331861658789,
        0,
        0,
        0,
        0,
        1
      ],
      "name": "Island_01",
      "children": [
        1,
        2,
        3
      ]
    },
    {
      "name": "Golgotha",
      "mesh": 3
    },
    {
      "matrix": [
        -2.5326282877038437,
        2.169827152166688e-15,
        -8.677983288548226,
        0,
        3.990191129361568e-16,
        11.63000293219966,
        2.7914929360691394e-15,
        0,
        8.677983288548232,
        3.101575125966557e-16,
        -2.532628287703845,
        0,
        -171.62587517123995,
        96.77772659937499,
        35.636785286259254,
        1
      ],
      "name": "Golgotha",
      "children": [
        5
      ]
    },
    {
      "matrix": [
        0.8386942037269123,
        0,
        3.5406765980380644e-17,
        0,
        0,
        0.5649468744304472,
        0,
        0,
        -2.4361157154765674e-16,
        0,
        0.8386942037269413,
        0,
        -106.56015793716357,
        29.846286802086972,
        -5.6519938773571665,
        1.0000000000000004
      ],
      "name": "gress",
      "mesh": 4
    },
    {
      "matrix": [
        0.8386942037269123,
        0,
        3.5406765980380644e-17,
        0,
        0,
        0.5649468744304472,
        0,
        0,
        -2.4361157154765674e-16,
        0,
        0.8386942037269413,
        0,
        -106.56015793716357,
        29.846286802086972,
        -5.6519938773571665,
        1.0000000000000004
      ],
      "name": "rock",
      "mesh": 5
    },
    {
      "matrix": [
        0.47779958371261233,
        -0.39320519870204335,
        0.27646564515739885,
        0,
        0.10023217579250557,
        0.2001148324173158,
        0.11138924895379207,
        0,
        -0.14625552684386833,
        -0.03764106918847012,
        0.19922969351472514,
        0,
        68.66633177099447,
        16.315598900109386,
        49.83384771743351,
        1
      ],
      "name": "Island_01",
      "children": [
        7,
        8
      ]
    },
    {
      "matrix": [
        0.5883484054145521,
        0.39223227027636803,
        -0.7071067811865475,
        0,
        -0.554700196225229,
        0.8320502943378437,
        0,
        0,
        0.588348405414552,
        0.392232270276368,
        0.7071067811865476,
        0,
        0,
        0,
        0,
        1
      ],
      "name": "Directional Light",
      "extensions": {
        "KHR_lights_punctual": {
          "light": 0
        }
      }
    },
    {
      "matrix": [
        0.8386942037269123,
        0,
        3.5406765980380644e-17,
        0,
        0,
        0.5649468744304472,
        0,
        0,
        -2.4361157154765674e-16,
        0,
        0.8386942037269413,
        0,
        -106.56015793716357,
        29.846286802086972,
        -5.6519938773571665,
        1.0000000000000004
      ],
      "name": "gress",
      "mesh": 6
    },
    {
      "matrix": [
        0.8386942037269123,
        0,
        3.5406765980380644e-17,
        0,
        0,
        0.5649468744304472,
        0,
        0,
        -2.4361157154765674e-16,
        0,
        0.8386942037269413,
        0,
        -106.56015793716357,
        29.846286802086972,
        -5.6519938773571665,
        1.0000000000000004
      ],
      "name": "rock",
      "mesh": 7
    },
    {
      "matrix": [
        0.6117847874035273,
        -0.16596646881058758,
        -0.10826766073509943,
        0,
        0.03669435431730907,
        0.12847951587020584,
        0.010397898909140993,
        0,
        0.03534369214410536,
        -0.029976249492515393,
        0.24566694505363385,
        0,
        -23.65998013330594,
        125.42246027268348,
        16.013274251964965,
        1
      ],
      "name": "Island_01 2",
      "children": [
        11,
        12
      ]
    },
    {
      "matrix": [
        -0.4159270209217636,
        -9.71445146547012e-17,
        -0.9093979949764277,
        0,
        -0.24400738391315668,
        0.9633305386165846,
        0.11160049267157546,
        0,
        0.8760508603174841,
        0.2683174861403576,
        -0.4006752010897541,
        0,
        3293.417677116896,
        1072.2050317047945,
        -1520.473047423735,
        1
      ],
      "camera": 0
    },
    {
      "matrix": [
        1,
        0,
        0,
        0,
        0,
        1,
        0,
        0,
        0,
        0,
        1,
        0,
        0,
        1,
        0,
        1
      ],
      "name": "Default Ambient Light"
    },
    {
      "name": "Scene 1",
      "children": [
        4,
        6,
        9,
        10,
        13,
        14,
        15
      ]
    }
  ],
  "bufferViews": [
    {
      "buffer": 0,
      "byteOffset": 0,
      "byteLength": 1008,
      "target": 34962,
      "byteStride": 12
    },
    {
      "buffer": 0,
      "byteOffset": 1008,
      "byteLength": 1008,
      "target": 34962,
      "byteStride": 12
    },
    {
      "buffer": 0,
      "byteOffset": 2016,
      "byteLength": 504,
      "target": 34963
    },
    {
      "buffer": 0,
      "byteOffset": 2520,
      "byteLength": 32256,
      "target": 34962,
      "byteStride": 12
    },
    {
      "buffer": 0,
      "byteOffset": 34776,
      "byteLength": 32256,
      "target": 34962,
      "byteStride": 12
    },
    {
      "buffer": 0,
      "byteOffset": 67032,
      "byteLength": 16128,
      "target": 34963
    },
    {
      "buffer": 0,
      "byteOffset": 83160,
      "byteLength": 1392,
      "target": 34962,
      "byteStride": 12
    },
    {
      "buffer": 0,
      "byteOffset": 84552,
      "byteLength": 1392,
      "target": 34962,
      "byteStride": 12
    },
    {
      "buffer": 0,
      "byteOffset": 85944,
      "byteLength": 696,
      "target": 34963
    },
    {
      "buffer": 0,
      "byteOffset": 86640,
      "byteLength": 98928,
      "target": 34962,
      "byteStride": 12
    },
    {
      "buffer": 0,
      "byteOffset": 185568,
      "byteLength": 98928,
      "target": 34962,
      "byteStride": 12
    },
    {
      "buffer": 0,
      "byteOffset": 284496,
      "byteLength": 65952,
      "target": 34962,
      "byteStride": 8
    },
    {
      "buffer": 0,
      "byteOffset": 350448,
      "byteLength": 1008,
      "target": 34962,
      "byteStride": 12
    },
    {
      "buffer": 0,
      "byteOffset": 351456,
      "byteLength": 1008,
      "target": 34962,
      "byteStride": 12
    },
    {
      "buffer": 0,
      "byteOffset": 352464,
      "byteLength": 504,
      "target": 34963
    },
    {
      "buffer": 0,
      "byteOffset": 352968,
      "byteLength": 1392,
      "target": 34962,
      "byteStride": 12
    },
    {
      "buffer": 0,
      "byteOffset": 354360,
      "byteLength": 1392,
      "target": 34962,
      "byteStride": 12
    },
    {
      "buffer": 0,
      "byteOffset": 355752,
      "byteLength": 696,
      "target": 34963
    },
    {
      "buffer": 0,
      "byteOffset": 356448,
      "byteLength": 1008,
      "target": 34962,
      "byteStride": 12
    },
    {
      "buffer": 0,
      "byteOffset": 357456,
      "byteLength": 1008,
      "target": 34962,
      "byteStride": 12
    },
    {
      "buffer": 0,
      "byteOffset": 358464,
      "byteLength": 504,
      "target": 34963
    },
    {
      "buffer": 0,
      "byteOffset": 358968,
      "byteLength": 1392,
      "target": 34962,
      "byteStride": 12
    },
    {
      "buffer": 0,
      "byteOffset": 360360,
      "byteLength": 1392,
      "target": 34962,
      "byteStride": 12
    },
    {
      "buffer": 0,
      "byteOffset": 361752,
      "byteLength": 696,
      "target": 34963
    }
  ],
  "buffers": [
    {
      "byteLength": 362448,
      "uri": "data:application/octet-stream;base64,"
    }
  ],
  "accessors": [
    {
      "bufferView": 0,
      "componentType": 5126,
      "count": 84,
      "max": [
        159.6937713623047,
        269.5291748046875,
        62.017452239990234
      ],
      "min": [
        -184.36741638183594,
        147.9218292236328,
        -174.32077026367188
      ],
      "type": "VEC3"
    },
    {
      "bufferView": 1,
      "componentType": 5126,
      "count": 84,
      "max": [
        0.8947890996932983,
        0.9999014139175415,
        0.9148032069206238
      ],
      "min": [
        -0.9524062871932983,
        -0.5164496898651123,
        -0.947688102722168
      ],
      "type": "VEC3"
    },
    {
      "bufferView": 2,
      "componentType": 5125,
      "count": 126,
      "max": [
        83
      ],
      "min": [
        0
      ],
      "type": "SCALAR"
    },
    {
      "bufferView": 3,
      "componentType": 5126,
      "count": 2688,
      "max": [
        456.862060546875,
        10.314949989318848,
        232.35687255859375
      ],
      "min": [
        -254.90953063964844,
        -54.347007751464844,
        -317.167236328125
      ],
      "type": "VEC3"
    },
    {
      "bufferView": 4,
      "componentType": 5126,
      "count": 2688,
      "max": [
        0.9715113639831543,
        0.9780747294425964,
        0.9556761384010315
      ],
      "min": [
        -0.999066948890686,
        -0.9999997019767761,
        -0.9577133655548096
      ],
      "type": "VEC3"
    },
    {
      "bufferView": 5,
      "componentType": 5125,
      "count": 4032,
      "max": [
        2687
      ],
      "min": [
        0
      ],
      "type": "SCALAR"
    },
    {
      "bufferView": 6,
      "componentType": 5126,
      "count": 116,
      "max": [
        240.36611938476562,
        254.158935546875,
        132.09130859375
      ],
      "min": [
        -201.63636779785156,
        0,
        -241.34561157226562
      ],
      "type": "VEC3"
    },
    {
      "bufferView": 7,
      "componentType": 5126,
      "count": 116,
      "max": [
        0.9751597046852112,
        0.9675626158714294,
        0.9683254361152649
      ],
      "min": [
        -0.964745044708252,
        -0.5200780034065247,
        -0.999055027961731
      ],
      "type": "VEC3"
    },
    {
      "bufferView": 8,
      "componentType": 5125,
      "count": 174,
      "max": [
        115
      ],
      "min": [
        0
      ],
      "type": "SCALAR"
    },
    {
      "bufferView": 9,
      "componentType": 5126,
      "count": 8244,
      "max": [
        8.395063400268555,
        13.299132347106934,
        8.395063400268555
      ],
      "min": [
        -8.395063400268555,
        -8.395063400268555,
        -8.395063400268555
      ],
      "type": "VEC3"
    },
    {
      "bufferView": 10,
      "componentType": 5126,
      "count": 8244,
      "max": [
        1,
        1,
        1
      ],
      "min": [
        -1,
        -1,
        -1
      ],
      "type": "VEC3"
    },
    {
      "bufferView": 11,
      "componentType": 5126,
      "count": 8244,
      "max": [
        0.9863070249557495,
        0.9863070249557495
      ],
      "min": [
        0.013693000189960003,
        0.013693000189960003
      ],
      "type": "VEC2"
    },
    {
      "bufferView": 12,
      "componentType": 5126,
      "count": 84,
      "max": [
        159.6937713623047,
        269.5291748046875,
        62.017452239990234
      ],
      "min": [
        -184.36741638183594,
        147.9218292236328,
        -174.32077026367188
      ],
      "type": "VEC3"
    },
    {
      "bufferView": 13,
      "componentType": 5126,
      "count": 84,
      "max": [
        0.8947890996932983,
        0.9999014139175415,
        0.9148032069206238
      ],
      "min": [
        -0.9524062871932983,
        -0.5164496898651123,
        -0.947688102722168
      ],
      "type": "VEC3"
    },
    {
      "bufferView": 14,
      "componentType": 5125,
      "count": 126,
      "max": [
        83
      ],
      "min": [
        0
      ],
      "type": "SCALAR"
    },
    {
      "bufferView": 15,
      "componentType": 5126,
      "count": 116,
      "max": [
        240.36611938476562,
        254.158935546875,
        132.09130859375
      ],
      "min": [
        -201.63636779785156,
        0,
        -241.34561157226562
      ],
      "type": "VEC3"
    },
    {
      "bufferView": 16,
      "componentType": 5126,
      "count": 116,
      "max": [
        0.9751597046852112,
        0.9675626158714294,
        0.9683254361152649
      ],
      "min": [
        -0.964745044708252,
        -0.5200780034065247,
        -0.999055027961731
      ],
      "type": "VEC3"
    },
    {
      "bufferView": 17,
      "componentType": 5125,
      "count": 174,
      "max": [
        115
      ],
      "min": [
        0
      ],
      "type": "SCALAR"
    },
    {
      "bufferView": 18,
      "componentType": 5126,
      "count": 84,
      "max": [
        159.6937713623047,
        269.5291748046875,
        62.017452239990234
      ],
      "min": [
        -184.36741638183594,
        147.9218292236328,
        -174.32077026367188
      ],
      "type": "VEC3"
    },
    {
      "bufferView": 19,
      "componentType": 5126,
      "count": 84,
      "max": [
        0.8947890996932983,
        0.9999014139175415,
        0.9148032069206238
      ],
      "min": [
        -0.9524062871932983,
        -0.5164496898651123,
        -0.947688102722168
      ],
      "type": "VEC3"
    },
    {
      "bufferView": 20,
      "componentType": 5125,
      "count": 126,
      "max": [
        83
      ],
      "min": [
        0
      ],
      "type": "SCALAR"
    },
    {
      "bufferView": 21,
      "componentType": 5126,
      "count": 116,
      "max": [
        240.36611938476562,
        254.158935546875,
        132.09130859375
      ],
      "min": [
        -201.63636779785156,
        0,
        -241.34561157226562
      ],
      "type": "VEC3"
    },
    {
      "bufferView": 22,
      "componentType": 5126,
      "count": 116,
      "max": [
        0.9751597046852112,
        0.9675626158714294,
        0.9683254361152649
      ],
      "min": [
        -0.964745044708252,
        -0.5200780034065247,
        -0.999055027961731
      ],
      "type": "VEC3"
    },
    {
      "bufferView": 23,
      "componentType": 5125,
      "count": 174,
      "max": [
        115
      ],
      "min": [
        0
      ],
      "type": "SCALAR"
    }
  ],
  "meshes": [
    {
      "primitives": [
        {
          "mode": 4,
          "attributes": {
            "POSITION": 0,
            "NORMAL": 1
          },
          "extras": {
            "type": "SubdivGeometry",
            "parameters": {
              "width": 344.0611877441406,
              "height": 121.60734558105469,
              "depth": 236.3382225036621
            }
          },
          "indices": 2
        }
      ]
    },
    {
      "primitives": [
        {
          "mode": 4,
          "attributes": {
            "POSITION": 3,
            "NORMAL": 4
          },
          "extras": {
            "type": "SubdivGeometry",
            "parameters": {
              "width": 813.1694946289062,
              "height": 65.08837223052979,
              "depth": 604.2419128417969
            }
          },
          "indices": 5
        }
      ]
    },
    {
      "primitives": [
        {
          "mode": 4,
          "attributes": {
            "POSITION": 6,
            "NORMAL": 7
          },
          "extras": {
            "type": "SubdivGeometry",
            "parameters": {
              "width": 442.0024871826172,
              "height": 254.158935546875,
              "depth": 373.4369201660156
            }
          },
          "indices": 8
        }
      ]
    },
    {
      "primitives": [
        {
          "mode": 4,
          "attributes": {
            "POSITION": 9,
            "NORMAL": 10,
            "TEXCOORD_0": 11
          },
          "extras": {
            "parameters": {
              "width": 16.79012680053711,
              "height": 21.69419574737549,
              "depth": 16.79012680053711,
              "subdivisions": 0
            },
            "type": "NonParametricGeometry"
          }
        }
      ]
    },
    {
      "primitives": [
        {
          "mode": 4,
          "attributes": {
            "POSITION": 12,
            "NORMAL": 13
          },
          "extras": {
            "type": "SubdivGeometry",
            "parameters": {
              "width": 344.0611877441406,
              "height": 121.60734558105469,
              "depth": 236.3382225036621
            }
          },
          "indices": 14
        }
      ]
    },
    {
      "primitives": [
        {
          "mode": 4,
          "attributes": {
            "POSITION": 15,
            "NORMAL": 16
          },
          "extras": {
            "type": "SubdivGeometry",
            "parameters": {
              "width": 442.0024871826172,
              "height": 254.158935546875,
              "depth": 373.4369201660156
            }
          },
          "indices": 17
        }
      ]
    },
    {
      "primitives": [
        {
          "mode": 4,
          "attributes": {
            "POSITION": 18,
            "NORMAL": 19
          },
          "extras": {
            "type": "SubdivGeometry",
            "parameters": {
              "width": 344.0611877441406,
              "height": 121.60734558105469,
              "depth": 236.3382225036621
            }
          },
          "indices": 20
        }
      ]
    },
    {
      "primitives": [
        {
          "mode": 4,
          "attributes": {
            "POSITION": 21,
            "NORMAL": 22
          },
          "extras": {
            "type": "SubdivGeometry",
            "parameters": {
              "width": 442.0024871826172,
              "height": 254.158935546875,
              "depth": 373.4369201660156
            }
          },
          "indices": 23
        }
      ]
    }
  ],
  "extensions": {
    "KHR_lights_punctual": {
      "lights": [
        {
          "name": "Directional Light",
          "color": [
            1,
            1,
            1
          ],
          "intensity": 0.7,
          "type": "directional"
        }
      ]
    }
  },
  "cameras": [
    {
      "type": "orthographic",
      "orthographic": {
        "xmag": 5.622488155174805,
        "ymag": 2.700121155346485,
        "zfar": 100000,
        "znear": 0
      }
    }
  ],
  "extensionsUsed": [
    "KHR_lights_punctual"
  ]
}