{
  "asset": {
    "version": "2.0",
    "generator": "THREE.GLTFExporter"
  },
  "scenes": [
    {
      "nodes": [
        0
      ]
    }
  ],
  "scene": 0,
  "nodes": [
    {
      "children": [
        12
      ],
      "matrix": [
        0.01,
        0,
        0,
        0,
        0,
        0.01,
        0,
        0,
        0,
        0,
        0.01,
        0,
        0,
        0,
        0,
        1
      ]
    },
    {
      "name": "Golgotha",
      "mesh": 0
    },
    {
      "matrix": [
        0.8386942037269123,
        0,
        3.5406765980380644e-17,
        0,
        0,
        0.5649468744304472,
        0,
        0,
        -2.4361157154765674e-16,
        0,
        0.8386942037269413,
        0,
        -106.56015793716357,
        29.846286802086972,
        -5.6519938773571665,
        1.0000000000000004
      ],
      "name": "gress",
      "mesh": 1
    },
    {
      "matrix": [
        0.8386942037269123,
        0,
        3.5406765980380644e-17,
        0,
        0,
        0.5649468744304472,
        0,
        0,
        -2.4361157154765674e-16,
        0,
        0.8386942037269413,
        0,
        -106.56015793716357,
        29.846286802086972,
        -5.6519938773571665,
        1.0000000000000004
      ],
      "name": "rock",
      "mesh": 2
    },
    {
      "matrix": [
        0.005296263254837631,
        0.003333064943946464,
        -0.0038855300971538244,
        0,
        -0.0011814342372395668,
        0.003500992012376153,
        0.0013928207661427514,
        0,
        0.004620586183918551,
        -0.0007056010735316777,
        0.005692923762269113,
        0,
        -2.3868261406394122,
        7.089876357438952,
        3.0418426673791625,
        1
      ],
      "name": "Island_01 2",
      "children": [
        2,
        3
      ]
    },
    {
      "matrix": [
        33.94,
        0,
        0,
        0,
        0,
        33.94000000000002,
        0,
        0,
        0,
        0,
        33.94000000000002,
        0,
        155,
        30,
        -16,
        1
      ],
      "name": "Golgotha",
      "children": [
        1,
        4
      ]
    },
    {
      "matrix": [
        0.8386942037269123,
        0,
        3.5406765980380644e-17,
        0,
        0,
        0.5649468744304472,
        0,
        0,
        -2.4361157154765674e-16,
        0,
        0.8386942037269413,
        0,
        -106.56015793716357,
        29.846286802086972,
        -5.6519938773571665,
        1.0000000000000004
      ],
      "name": "gress",
      "mesh": 1
    },
    {
      "matrix": [
        0.8386942037269123,
        0,
        3.5406765980380644e-17,
        0,
        0,
        0.5649468744304472,
        0,
        0,
        -2.4361157154765674e-16,
        0,
        0.8386942037269413,
        0,
        -106.56015793716357,
        29.846286802086972,
        -5.6519938773571665,
        1.0000000000000004
      ],
      "name": "rock",
      "mesh": 2
    },
    {
      "matrix": [
        0.018282944845417926,
        -0.09117263242773804,
        0.23206310569320573,
        0,
        0.057206052669216856,
        0.22801275241477356,
        0.08507439258816935,
        0,
        -0.24267921514993038,
        0.04688001527768252,
        0.03753748395641429,
        0,
        284.936071234419,
        220.34588314272497,
        119.61859195415155,
        1
      ],
      "name": "Island_01",
      "children": [
        6,
        7
      ]
    },
    {
      "matrix": [
        0.5883484054145521,
        0.39223227027636803,
        -0.7071067811865475,
        0,
        -0.554700196225229,
        0.8320502943378437,
        0,
        0,
        0.588348405414552,
        0.392232270276368,
        0.7071067811865476,
        0,
        0,
        0,
        0,
        1
      ],
      "name": "Directional Light",
      "extensions": {
        "KHR_lights_punctual": {
          "light": 0
        }
      }
    },
    {
      "matrix": [
        0.9939552294749358,
        2.9620059690572964e-8,
        -0.1097861639708161,
        0,
        -0.012123345265043804,
        0.9938842787748159,
        -0.10975912218967794,
        0,
        0.1091147391465165,
        0.11042662905415178,
        0.9878764767402474,
        0,
        78.11473914652028,
        164.42662905415582,
        987.8764767402824,
        1
      ],
      "camera": 0
    },
    {
      "matrix": [
        1,
        0,
        0,
        0,
        0,
        1,
        0,
        0,
        0,
        0,
        1,
        0,
        0,
        1,
        0,
        1
      ],
      "name": "Default Ambient Light"
    },
    {
      "name": "Scene 1",
      "children": [
        5,
        8,
        9,
        10,
        11
      ]
    }
  ],
  "bufferViews": [
    {
      "buffer": 0,
      "byteOffset": 0,
      "byteLength": 98928,
      "target": 34962,
      "byteStride": 12
    },
    {
      "buffer": 0,
      "byteOffset": 98928,
      "byteLength": 98928,
      "target": 34962,
      "byteStride": 12
    },
    {
      "buffer": 0,
      "byteOffset": 197856,
      "byteLength": 65952,
      "target": 34962,
      "byteStride": 8
    },
    {
      "buffer": 0,
      "byteOffset": 263808,
      "byteLength": 1008,
      "target": 34962,
      "byteStride": 12
    },
    {
      "buffer": 0,
      "byteOffset": 264816,
      "byteLength": 1008,
      "target": 34962,
      "byteStride": 12
    },
    {
      "buffer": 0,
      "byteOffset": 265824,
      "byteLength": 504,
      "target": 34963
    },
    {
      "buffer": 0,
      "byteOffset": 266328,
      "byteLength": 1392,
      "target": 34962,
      "byteStride": 12
    },
    {
      "buffer": 0,
      "byteOffset": 267720,
      "byteLength": 1392,
      "target": 34962,
      "byteStride": 12
    },
    {
      "buffer": 0,
      "byteOffset": 269112,
      "byteLength": 696,
      "target": 34963
    }
  ],
  "buffers": [
    {
      "byteLength": 269808,
      "uri": "data:application/octet-stream;base64,"
    }
  ],
  "accessors": [
    {
      "bufferView": 0,
      "componentType": 5126,
      "count": 8244,
      "max": [
        8.395063400268555,
        13.299132347106934,
        8.395063400268555
      ],
      "min": [
        -8.395063400268555,
        -8.395063400268555,
        -8.395063400268555
      ],
      "type": "VEC3"
    },
    {
      "bufferView": 1,
      "componentType": 5126,
      "count": 8244,
      "max": [
        1,
        1,
        1
      ],
      "min": [
        -1,
        -1,
        -1
      ],
      "type": "VEC3"
    },
    {
      "bufferView": 2,
      "componentType": 5126,
      "count": 8244,
      "max": [
        0.9863070249557495,
        0.9863070249557495
      ],
      "min": [
        0.013693000189960003,
        0.013693000189960003
      ],
      "type": "VEC2"
    },
    {
      "bufferView": 3,
      "componentType": 5126,
      "count": 84,
      "max": [
        159.6937713623047,
        269.5291748046875,
        62.017452239990234
      ],
      "min": [
        -184.36741638183594,
        147.9218292236328,
        -174.32077026367188
      ],
      "type": "VEC3"
    },
    {
      "bufferView": 4,
      "componentType": 5126,
      "count": 84,
      "max": [
        0.8947890996932983,
        0.9999014139175415,
        0.9148032069206238
      ],
      "min": [
        -0.9524062871932983,
        -0.5164496898651123,
        -0.947688102722168
      ],
      "type": "VEC3"
    },
    {
      "bufferView": 5,
      "componentType": 5125,
      "count": 126,
      "max": [
        83
      ],
      "min": [
        0
      ],
      "type": "SCALAR"
    },
    {
      "bufferView": 6,
      "componentType": 5126,
      "count": 116,
      "max": [
        240.36611938476562,
        254.158935546875,
        132.09130859375
      ],
      "min": [
        -201.63636779785156,
        0,
        -241.34561157226562
      ],
      "type": "VEC3"
    },
    {
      "bufferView": 7,
      "componentType": 5126,
      "count": 116,
      "max": [
        0.9751597046852112,
        0.9675626158714294,
        0.9683254361152649
      ],
      "min": [
        -0.964745044708252,
        -0.5200780034065247,
        -0.999055027961731
      ],
      "type": "VEC3"
    },
    {
      "bufferView": 8,
      "componentType": 5125,
      "count": 174,
      "max": [
        115
      ],
      "min": [
        0
      ],
      "type": "SCALAR"
    }
  ],
  "meshes": [
    {
      "primitives": [
        {
          "mode": 4,
          "attributes": {
            "POSITION": 0,
            "NORMAL": 1,
            "TEXCOORD_0": 2
          },
          "extras": {
            "parameters": {
              "width": 16.79012680053711,
              "height": 21.69419574737549,
              "depth": 16.79012680053711,
              "subdivisions": 0
            },
            "type": "NonParametricGeometry"
          }
        }
      ]
    },
    {
      "primitives": [
        {
          "mode": 4,
          "attributes": {
            "POSITION": 3,
            "NORMAL": 4
          },
          "extras": {
            "type": "SubdivGeometry",
            "parameters": {
              "width": 344.0611877441406,
              "height": 121.60734558105469,
              "depth": 236.3382225036621
            }
          },
          "indices": 5
        }
      ]
    },
    {
      "primitives": [
        {
          "mode": 4,
          "attributes": {
            "POSITION": 6,
            "NORMAL": 7
          },
          "extras": {
            "type": "SubdivGeometry",
            "parameters": {
              "width": 442.0024871826172,
              "height": 254.158935546875,
              "depth": 373.4369201660156
            }
          },
          "indices": 8
        }
      ]
    }
  ],
  "extensions": {
    "KHR_lights_punctual": {
      "lights": [
        {
          "name": "Directional Light",
          "color": [
            1,
            1,
            1
          ],
          "intensity": 0.7,
          "type": "directional"
        }
      ]
    }
  },
  "cameras": [
    {
      "type": "orthographic",
      "orthographic": {
        "xmag": 8.077562326869806,
        "ymag": 4.520775623268698,
        "zfar": 100000,
        "znear": 0
      }
    }
  ],
  "extensionsUsed": [
    "KHR_lights_punctual"
  ]
}