{
  "asset": {
    "version": "2.0",
    "generator": "THREE.GLTFExporter"
  },
  "scenes": [
    {
      "nodes": [
        0
      ]
    }
  ],
  "scene": 0,
  "nodes": [
    {
      "children": [
        7
      ],
      "matrix": [
        0.01,
        0,
        0,
        0,
        0,
        0.01,
        0,
        0,
        0,
        0,
        0.01,
        0,
        0,
        0,
        0,
        1
      ]
    },
    {
      "name": "S",
      "mesh": 0
    },
    {
      "matrix": [
        67.37,
        0,
        0,
        0,
        0,
        67.36999999999988,
        0,
        0,
        0,
        0,
        67.36999999999988,
        0,
        0,
        0,
        1116.6715753977023,
        1
      ],
      "name": "FRA_NANTES_PLS-DE-LA-BOURSE_S",
      "children": [
        1
      ]
    },
    {
      "name": "WilanowPalace"
    },
    {
      "matrix": [
        0.5883484054145521,
        0.39223227027636803,
        -0.7071067811865475,
        0,
        -0.554700196225229,
        0.8320502943378437,
        0,
        0,
        0.588348405414552,
        0.392232270276368,
        0.7071067811865476,
        0,
        0,
        0,
        0,
        1
      ],
      "name": "Directional Light",
      "extensions": {
        "KHR_lights_punctual": {
          "light": 0
        }
      }
    },
    {
      "matrix": [
        0.8090160086865943,
        2.577830608870013e-8,
        0.5877866089737089,
        0,
        -0.02892162383480855,
        0.9987887369979873,
        0.03980701597360935,
        0,
        -0.5870746437750232,
        -0.049204256380568245,
        0.8080360782727867,
        0,
        -780.64171563285,
        66.8731300054551,
        776.5758200700619,
        1
      ],
      "camera": 0
    },
    {
      "matrix": [
        1,
        0,
        0,
        0,
        0,
        1,
        0,
        0,
        0,
        0,
        1,
        0,
        0,
        1,
        0,
        1
      ],
      "name": "Default Ambient Light"
    },
    {
      "name": "Scene 1",
      "children": [
        2,
        3,
        4,
        5,
        6
      ]
    }
  ],
  "bufferViews": [
    {
      "buffer": 0,
      "byteOffset": 0,
      "byteLength": 20808,
      "target": 34962,
      "byteStride": 12
    },
    {
      "buffer": 0,
      "byteOffset": 20808,
      "byteLength": 20808,
      "target": 34962,
      "byteStride": 12
    },
    {
      "buffer": 0,
      "byteOffset": 41616,
      "byteLength": 13872,
      "target": 34962,
      "byteStride": 8
    }
  ],
  "buffers": [
    {
      "byteLength": 55488,
      "uri": "data:application/octet-stream;base64,"
    }
  ],
  "accessors": [
    {
      "bufferView": 0,
      "componentType": 5126,
      "count": 1734,
      "max": [
        20.08329963684082,
        14.434700012207031,
        0.07599999755620956
      ],
      "min": [
        -15.535599708557129,
        0,
        -38.154701232910156
      ],
      "type": "VEC3"
    },
    {
      "bufferView": 1,
      "componentType": 5126,
      "count": 1734,
      "max": [
        0.9902999997138977,
        1,
        0.9902999997138977
      ],
      "min": [
        -0.9902999997138977,
        -1,
        -0.9902999997138977
      ],
      "type": "VEC3"
    },
    {
      "bufferView": 2,
      "componentType": 5126,
      "count": 1734,
      "max": [
        0.9987999796867371,
        0.9991000294685364
      ],
      "min": [
        0.0012000000569969416,
        0.002199999988079071
      ],
      "type": "VEC2"
    }
  ],
  "meshes": [
    {
      "primitives": [
        {
          "mode": 4,
          "attributes": {
            "POSITION": 0,
            "NORMAL": 1,
            "TEXCOORD_0": 2
          },
          "extras": {
            "parameters": {
              "width": 35.61889934539795,
              "height": 14.434700012207031,
              "depth": 38.230701230466366,
              "subdivisions": 0
            },
            "type": "NonParametricGeometry"
          }
        }
      ]
    }
  ],
  "extensions": {
    "KHR_lights_punctual": {
      "lights": [
        {
          "name": "Directional Light",
          "color": [
            1,
            1,
            1
          ],
          "intensity": 0.7,
          "type": "directional"
        }
      ]
    }
  },
  "cameras": [
    {
      "type": "orthographic",
      "orthographic": {
        "xmag": 33.96404203081451,
        "ymag": 19.008681959632813,
        "zfar": 100000,
        "znear": 0
      }
    }
  ],
  "extensionsUsed": [
    "KHR_lights_punctual"
  ]
}